<?xml version="1.0" encoding="utf-8" standalone="no"?>
<!DOCTYPE svg PUBLIC "-//W3C//DTD SVG 1.1//EN"
  "http://www.w3.org/Graphics/SVG/1.1/DTD/svg11.dtd">
<!-- Created with matplotlib (http://matplotlib.org/) -->
<svg height="228pt" version="1.1" viewBox="0 0 228 228" width="228pt" xmlns="http://www.w3.org/2000/svg" xmlns:xlink="http://www.w3.org/1999/xlink">
 <defs>
  <style type="text/css">
*{stroke-linecap:butt;stroke-linejoin:round;}
  </style>
 </defs>
 <g id="figure_1">
  <g id="patch_1">
   <path d="M 0 228.76 
L 228.76 228.76 
L 228.76 0 
L 0 0 
z
" style="fill:none;"/>
  </g>
  <g id="patch_2">
   <path d="M 3.5 225.26 
L 225.26 225.26 
L 225.26 3.5 
L 3.5 3.5 
z
" style="fill:#ffffff;"/>
  </g>
  <g id="axes_1">
   <g id="Poly3DCollection_1">
    <path clip-path="url(#p8dd3867678)" d="M 152.869111 142.120524 
L 120.024732 103.380232 
L 101.657656 151.090679 
z
" style="fill:#ffff00;stroke:#000000;"/>
    <path clip-path="url(#p8dd3867678)" d="M 120.024732 103.380232 
L 69.711814 110.046354 
L 101.657656 151.090679 
z
" style="fill:#00ffff;stroke:#000000;"/>
    <path clip-path="url(#p8dd3867678)" d="M 164.786045 96.402321 
L 120.024732 103.380232 
L 152.869111 142.120524 
z
" style="fill:#ffff00;stroke:#000000;"/>
    <path clip-path="url(#p8dd3867678)" d="M 120.024732 103.380232 
L 91.291072 62.706693 
L 69.711814 110.046354 
z
" style="fill:#ffff00;stroke:#000000;"/>
    <path clip-path="url(#p8dd3867678)" d="M 164.786045 96.402321 
L 138.745276 62.716001 
L 120.024732 103.380232 
z
" style="fill:#ffff00;stroke:#000000;"/>
    <path clip-path="url(#p8dd3867678)" d="M 138.745276 62.716001 
L 91.291072 62.706693 
L 120.024732 103.380232 
z
" style="fill:#ffff00;stroke:#000000;"/>
    <path clip-path="url(#p8dd3867678)" d="M 152.869111 142.120524 
L 101.657656 151.090679 
L 132.638119 181.405148 
z
" style="fill:#ffff00;stroke:#000000;"/>
    <path clip-path="url(#p8dd3867678)" d="M 101.657656 151.090679 
L 69.711814 110.046354 
L 54.726161 155.94817 
z
" style="fill:#ffff00;stroke:#000000;"/>
    <path clip-path="url(#p8dd3867678)" d="M 166.706086 68.662791 
L 138.745276 62.716001 
L 164.786045 96.402321 
z
" style="fill:#ff0000;stroke:#000000;"/>
    <path clip-path="url(#p8dd3867678)" d="M 164.786045 96.402321 
L 152.869111 142.120524 
L 196.271367 125.11221 
z
" style="fill:#ffff00;stroke:#000000;"/>
    <path clip-path="url(#p8dd3867678)" d="M 91.291072 62.706693 
L 49.032392 73.936456 
L 69.711814 110.046354 
z
" style="fill:#ffff00;stroke:#000000;"/>
    <path clip-path="url(#p8dd3867678)" d="M 138.745276 62.716001 
L 120.122348 26.546532 
L 91.291072 62.706693 
z
" style="fill:#ffff00;stroke:#000000;"/>
    <path clip-path="url(#p8dd3867678)" d="M 132.638119 181.405148 
L 101.657656 151.090679 
L 90.728209 187.606429 
z
" style="fill:#ffff00;stroke:#000000;"/>
    <path clip-path="url(#p8dd3867678)" d="M 101.657656 151.090679 
L 54.726161 155.94817 
L 90.728209 187.606429 
z
" style="fill:#ffff00;stroke:#000000;"/>
    <path clip-path="url(#p8dd3867678)" d="M 166.706086 68.662791 
L 164.786045 96.402321 
L 192.626381 77.048603 
z
" style="fill:#ff0000;stroke:#000000;"/>
    <path clip-path="url(#p8dd3867678)" d="M 166.706086 68.662791 
L 166.007628 42.519036 
L 138.745276 62.716001 
z
" style="fill:#ff0000;stroke:#000000;"/>
    <path clip-path="url(#p8dd3867678)" d="M 152.869111 142.120524 
L 132.638119 181.405148 
L 177.919688 174.52237 
z
" style="fill:#ffff00;stroke:#000000;"/>
    <path clip-path="url(#p8dd3867678)" d="M 69.711814 110.046354 
L 33.149547 113.816332 
L 54.726161 155.94817 
z
" style="fill:#ffff00;stroke:#000000;"/>
    <path clip-path="url(#p8dd3867678)" d="M 69.711814 110.046354 
L 49.032392 73.936456 
L 33.149547 113.816332 
z
" style="fill:#ffff00;stroke:#000000;"/>
    <path clip-path="url(#p8dd3867678)" d="M 164.786045 96.402321 
L 196.271367 125.11221 
L 192.626381 77.048603 
z
" style="fill:#ffff00;stroke:#000000;"/>
    <path clip-path="url(#p8dd3867678)" d="M 152.869111 142.120524 
L 177.919688 174.52237 
L 196.271367 125.11221 
z
" style="fill:#ffff00;stroke:#000000;"/>
    <path clip-path="url(#p8dd3867678)" d="M 138.745276 62.716001 
L 166.007628 42.519036 
L 120.122348 26.546532 
z
" style="fill:#ffff00;stroke:#000000;"/>
    <path clip-path="url(#p8dd3867678)" d="M 91.291072 62.706693 
L 67.936908 32.68427 
L 49.032392 73.936456 
z
" style="fill:#ffff00;stroke:#000000;"/>
    <path clip-path="url(#p8dd3867678)" d="M 166.706086 68.662791 
L 192.626381 77.048603 
L 166.007628 42.519036 
z
" style="fill:#ff0000;stroke:#000000;"/>
    <path clip-path="url(#p8dd3867678)" d="M 91.291072 62.706693 
L 120.122348 26.546532 
L 67.936908 32.68427 
z
" style="fill:#ffff00;stroke:#000000;"/>
    <path clip-path="url(#p8dd3867678)" d="M 132.638119 181.405148 
L 90.728209 187.606429 
L 117.376757 198.619125 
z
" style="fill:#ff0000;stroke:#000000;"/>
    <path clip-path="url(#p8dd3867678)" d="M 49.032392 73.936456 
L 29.647028 86.057852 
L 33.149547 113.816332 
z
" style="fill:#ff0000;stroke:#000000;"/>
    <path clip-path="url(#p8dd3867678)" d="M 132.638119 181.405148 
L 144.631203 205.074849 
L 177.919688 174.52237 
z
" style="fill:#ffff00;stroke:#000000;"/>
    <path clip-path="url(#p8dd3867678)" d="M 132.638119 181.405148 
L 117.376757 198.619125 
L 144.631203 205.074849 
z
" style="fill:#ff0000;stroke:#000000;"/>
    <path clip-path="url(#p8dd3867678)" d="M 54.726161 155.94817 
L 55.380611 192.649718 
L 90.728209 187.606429 
z
" style="fill:#ffff00;stroke:#000000;"/>
    <path clip-path="url(#p8dd3867678)" d="M 33.149547 113.816332 
L 21.515835 149.359792 
L 54.726161 155.94817 
z
" style="fill:#ffff00;stroke:#000000;"/>
    <path clip-path="url(#p8dd3867678)" d="M 192.626381 77.048603 
L 196.271367 125.11221 
L 220.01452 97.63239 
z
" style="fill:#ffff00;stroke:#000000;"/>
    <path clip-path="url(#p8dd3867678)" d="M 196.271367 125.11221 
L 177.919688 174.52237 
L 213.630715 152.353044 
z
" style="fill:#00ffff;stroke:#000000;"/>
    <path clip-path="url(#p8dd3867678)" d="M 49.032392 73.936456 
L 67.936908 32.68427 
L 30.921993 58.971126 
z
" style="fill:#ffff00;stroke:#000000;"/>
    <path clip-path="url(#p8dd3867678)" d="M 117.376757 198.619125 
L 90.728209 187.606429 
L 101.509344 211.668987 
z
" style="fill:#ff0000;stroke:#000000;"/>
    <path clip-path="url(#p8dd3867678)" d="M 192.626381 77.048603 
L 199.275696 46.57221 
L 166.007628 42.519036 
z
" style="fill:#ffff00;stroke:#000000;"/>
    <path clip-path="url(#p8dd3867678)" d="M 49.032392 73.936456 
L 30.921993 58.971126 
L 29.647028 86.057852 
z
" style="fill:#ff0000;stroke:#000000;"/>
    <path clip-path="url(#p8dd3867678)" d="M 120.122348 26.546532 
L 166.007628 42.519036 
L 155.103193 13.367087 
z
" style="fill:#ffff00;stroke:#000000;"/>
    <path clip-path="url(#p8dd3867678)" d="M 14.390049 100.078547 
L 33.149547 113.816332 
L 29.647028 86.057852 
z
" style="fill:#ff0000;stroke:#000000;"/>
    <path clip-path="url(#p8dd3867678)" d="M 54.726161 155.94817 
L 21.515835 149.359792 
L 55.380611 192.649718 
z
" style="fill:#ffff00;stroke:#000000;"/>
    <path clip-path="url(#p8dd3867678)" d="M 67.936908 32.68427 
L 120.122348 26.546532 
L 100.537773 6.002971 
z
" style="fill:#00ffff;stroke:#000000;"/>
    <path clip-path="url(#p8dd3867678)" d="M 90.728209 187.606429 
L 55.380611 192.649718 
L 101.509344 211.668987 
z
" style="fill:#ffff00;stroke:#000000;"/>
    <path clip-path="url(#p8dd3867678)" d="M 117.376757 198.619125 
L 101.509344 211.668987 
L 144.631203 205.074849 
z
" style="fill:#ff0000;stroke:#000000;"/>
    <path clip-path="url(#p8dd3867678)" d="M 220.01452 97.63239 
L 196.271367 125.11221 
L 213.630715 152.353044 
z
" style="fill:#ffff00;stroke:#000000;"/>
    <path clip-path="url(#p8dd3867678)" d="M 192.626381 77.048603 
L 220.01452 97.63239 
L 199.275696 46.57221 
z
" style="fill:#ffff00;stroke:#000000;"/>
    <path clip-path="url(#p8dd3867678)" d="M 14.390049 100.078547 
L 21.515835 149.359792 
L 33.149547 113.816332 
z
" style="fill:#ffff00;stroke:#000000;"/>
    <path clip-path="url(#p8dd3867678)" d="M 199.275696 46.57221 
L 155.103193 13.367087 
L 166.007628 42.519036 
z
" style="fill:#ffff00;stroke:#000000;"/>
    <path clip-path="url(#p8dd3867678)" d="M 177.919688 174.52237 
L 144.631203 205.074849 
L 183.482386 196.571924 
z
" style="fill:#ffff00;stroke:#000000;"/>
    <path clip-path="url(#p8dd3867678)" d="M 14.390049 100.078547 
L 29.647028 86.057852 
L 30.921993 58.971126 
z
" style="fill:#ff0000;stroke:#000000;"/>
    <path clip-path="url(#p8dd3867678)" d="M 100.537773 6.002971 
L 120.122348 26.546532 
L 155.103193 13.367087 
z
" style="fill:#ffff00;stroke:#000000;"/>
    <path clip-path="url(#p8dd3867678)" d="M 213.630715 152.353044 
L 177.919688 174.52237 
L 183.482386 196.571924 
z
" style="fill:#ffff00;stroke:#000000;"/>
    <path clip-path="url(#p8dd3867678)" d="M 30.921993 58.971126 
L 67.936908 32.68427 
L 50.702303 25.461533 
z
" style="fill:#ffff00;stroke:#000000;"/>
    <path clip-path="url(#p8dd3867678)" d="M 50.702303 25.461533 
L 67.936908 32.68427 
L 100.537773 6.002971 
z
" style="fill:#ffff00;stroke:#000000;"/>
    <path clip-path="url(#p8dd3867678)" d="M 144.631203 205.074849 
L 101.509344 211.668987 
L 134.55172 218.866113 
z
" style="fill:#ffff00;stroke:#000000;"/>
    <path clip-path="url(#p8dd3867678)" d="M 55.380611 192.649718 
L 78.424383 212.584478 
L 101.509344 211.668987 
z
" style="fill:#ffff00;stroke:#000000;"/>
    <path clip-path="url(#p8dd3867678)" d="M 21.515835 149.359792 
L 32.509614 178.543175 
L 55.380611 192.649718 
z
" style="fill:#00ffff;stroke:#000000;"/>
    <path clip-path="url(#p8dd3867678)" d="M 144.631203 205.074849 
L 134.55172 218.866113 
L 183.482386 196.571924 
z
" style="fill:#ffff00;stroke:#000000;"/>
    <path clip-path="url(#p8dd3867678)" d="M 17.73507 68.971481 
L 14.390049 100.078547 
L 30.921993 58.971126 
z
" style="fill:#ffff00;stroke:#000000;"/>
    <path clip-path="url(#p8dd3867678)" d="M 220.01452 97.63239 
L 213.630715 152.353044 
L 223.841582 123.069727 
z
" style="fill:#ffff00;stroke:#000000;"/>
    <path clip-path="url(#p8dd3867678)" d="M 10.491562 125.703144 
L 21.515835 149.359792 
L 14.390049 100.078547 
z
" style="fill:#ffff00;stroke:#000000;"/>
    <path clip-path="url(#p8dd3867678)" d="M 220.01452 97.63239 
L 217.443164 71.740637 
L 199.275696 46.57221 
z
" style="fill:#ffff00;stroke:#000000;"/>
    <path clip-path="url(#p8dd3867678)" d="M 182.381264 26.173315 
L 155.103193 13.367087 
L 199.275696 46.57221 
z
" style="fill:#ffff00;stroke:#000000;"/>
    <path clip-path="url(#p8dd3867678)" d="M 100.537773 6.002971 
L 155.103193 13.367087 
L 133.968496 6.519591 
z
" style="fill:#ffff00;stroke:#000000;"/>
    <path clip-path="url(#p8dd3867678)" d="M 17.73507 68.971481 
L 30.921993 58.971126 
L 50.702303 25.461533 
z
" style="fill:#ffff00;stroke:#000000;"/>
    <path clip-path="url(#p8dd3867678)" d="M 213.630715 152.353044 
L 183.482386 196.571924 
L 207.969493 166.303955 
z
" style="fill:#ffff00;stroke:#000000;"/>
    <path clip-path="url(#p8dd3867678)" d="M 134.55172 218.866113 
L 101.509344 211.668987 
L 78.424383 212.584478 
z
" style="fill:#ffff00;stroke:#000000;"/>
    <path clip-path="url(#p8dd3867678)" d="M 55.380611 192.649718 
L 32.509614 178.543175 
L 78.424383 212.584478 
z
" style="fill:#ffff00;stroke:#000000;"/>
    <path clip-path="url(#p8dd3867678)" d="M 10.491562 125.703144 
L 32.509614 178.543175 
L 21.515835 149.359792 
z
" style="fill:#ffff00;stroke:#000000;"/>
    <path clip-path="url(#p8dd3867678)" d="M 220.01452 97.63239 
L 223.841582 123.069727 
L 217.443164 71.740637 
z
" style="fill:#ffff00;stroke:#000000;"/>
    <path clip-path="url(#p8dd3867678)" d="M 10.491562 125.703144 
L 14.390049 100.078547 
L 17.73507 68.971481 
z
" style="fill:#ffff00;stroke:#000000;"/>
    <path clip-path="url(#p8dd3867678)" d="M 223.841582 123.069727 
L 213.630715 152.353044 
L 207.969493 166.303955 
z
" style="fill:#ffff00;stroke:#000000;"/>
    <path clip-path="url(#p8dd3867678)" d="M 50.702303 25.461533 
L 100.537773 6.002971 
L 88.384612 11.718016 
z
" style="fill:#ffff00;stroke:#000000;"/>
    <path clip-path="url(#p8dd3867678)" d="M 182.381264 26.173315 
L 199.275696 46.57221 
L 217.443164 71.740637 
z
" style="fill:#00ffff;stroke:#000000;"/>
    <path clip-path="url(#p8dd3867678)" d="M 182.381264 26.173315 
L 133.968496 6.519591 
L 155.103193 13.367087 
z
" style="fill:#ffff00;stroke:#000000;"/>
    <path clip-path="url(#p8dd3867678)" d="M 88.384612 11.718016 
L 100.537773 6.002971 
L 133.968496 6.519591 
z
" style="fill:#ffff00;stroke:#000000;"/>
    <path clip-path="url(#p8dd3867678)" d="M 183.482386 196.571924 
L 134.55172 218.866113 
L 171.027178 196.784658 
z
" style="fill:#ffff00;stroke:#000000;"/>
    <path clip-path="url(#p8dd3867678)" d="M 183.482386 196.571924 
L 171.027178 196.784658 
L 207.969493 166.303955 
z
" style="fill:#ffff00;stroke:#000000;"/>
    <path clip-path="url(#p8dd3867678)" d="M 50.693991 41.840995 
L 17.73507 68.971481 
L 50.702303 25.461533 
z
" style="fill:#ffff00;stroke:#000000;"/>
    <path clip-path="url(#p8dd3867678)" d="M 212.034201 138.708494 
L 223.841582 123.069727 
L 207.969493 166.303955 
z
" style="fill:#ff0000;stroke:#000000;"/>
    <path clip-path="url(#p8dd3867678)" d="M 134.55172 218.866113 
L 78.424383 212.584478 
L 114.333844 205.406953 
z
" style="fill:#ffff00;stroke:#000000;"/>
    <path clip-path="url(#p8dd3867678)" d="M 50.693991 41.840995 
L 50.702303 25.461533 
L 88.384612 11.718016 
z
" style="fill:#ffff00;stroke:#000000;"/>
    <path clip-path="url(#p8dd3867678)" d="M 32.509614 178.543175 
L 63.584996 187.555578 
L 78.424383 212.584478 
z
" style="fill:#ffff00;stroke:#000000;"/>
    <path clip-path="url(#p8dd3867678)" d="M 223.841582 123.069727 
L 210.551628 108.691682 
L 217.443164 71.740637 
z
" style="fill:#ffff00;stroke:#000000;"/>
    <path clip-path="url(#p8dd3867678)" d="M 33.838199 149.499929 
L 32.509614 178.543175 
L 10.491562 125.703144 
z
" style="fill:#ffff00;stroke:#000000;"/>
    <path clip-path="url(#p8dd3867678)" d="M 29.023145 96.008254 
L 10.491562 125.703144 
L 17.73507 68.971481 
z
" style="fill:#ffff00;stroke:#000000;"/>
    <path clip-path="url(#p8dd3867678)" d="M 117.376757 16.14407 
L 88.384612 11.718016 
L 133.968496 6.519591 
z
" style="fill:#ff0000;stroke:#000000;"/>
    <path clip-path="url(#p8dd3867678)" d="M 147.087493 26.401241 
L 133.968496 6.519591 
L 182.381264 26.173315 
z
" style="fill:#ffff00;stroke:#000000;"/>
    <path clip-path="url(#p8dd3867678)" d="M 134.55172 218.866113 
L 114.333844 205.406953 
L 171.027178 196.784658 
z
" style="fill:#00ffff;stroke:#000000;"/>
    <path clip-path="url(#p8dd3867678)" d="M 212.034201 138.708494 
L 210.551628 108.691682 
L 223.841582 123.069727 
z
" style="fill:#ff0000;stroke:#000000;"/>
    <path clip-path="url(#p8dd3867678)" d="M 187.978217 61.162669 
L 182.381264 26.173315 
L 217.443164 71.740637 
z
" style="fill:#ffff00;stroke:#000000;"/>
    <path clip-path="url(#p8dd3867678)" d="M 114.333844 205.406953 
L 78.424383 212.584478 
L 63.584996 187.555578 
z
" style="fill:#ffff00;stroke:#000000;"/>
    <path clip-path="url(#p8dd3867678)" d="M 194.014605 153.37414 
L 212.034201 138.708494 
L 207.969493 166.303955 
z
" style="fill:#ff0000;stroke:#000000;"/>
    <path clip-path="url(#p8dd3867678)" d="M 117.376757 16.14407 
L 133.968496 6.519591 
L 147.087493 26.401241 
z
" style="fill:#ff0000;stroke:#000000;"/>
    <path clip-path="url(#p8dd3867678)" d="M 33.838199 149.499929 
L 63.584996 187.555578 
L 32.509614 178.543175 
z
" style="fill:#ffff00;stroke:#000000;"/>
    <path clip-path="url(#p8dd3867678)" d="M 194.014605 153.37414 
L 207.969493 166.303955 
L 171.027178 196.784658 
z
" style="fill:#ffff00;stroke:#000000;"/>
    <path clip-path="url(#p8dd3867678)" d="M 29.023145 96.008254 
L 17.73507 68.971481 
L 50.693991 41.840995 
z
" style="fill:#00ffff;stroke:#000000;"/>
    <path clip-path="url(#p8dd3867678)" d="M 33.838199 149.499929 
L 10.491562 125.703144 
L 29.023145 96.008254 
z
" style="fill:#ffff00;stroke:#000000;"/>
    <path clip-path="url(#p8dd3867678)" d="M 187.978217 61.162669 
L 217.443164 71.740637 
L 210.551628 108.691682 
z
" style="fill:#ffff00;stroke:#000000;"/>
    <path clip-path="url(#p8dd3867678)" d="M 100.06621 31.959308 
L 88.384612 11.718016 
L 117.376757 16.14407 
z
" style="fill:#ff0000;stroke:#000000;"/>
    <path clip-path="url(#p8dd3867678)" d="M 147.087493 26.401241 
L 182.381264 26.173315 
L 187.978217 61.162669 
z
" style="fill:#ffff00;stroke:#000000;"/>
    <path clip-path="url(#p8dd3867678)" d="M 100.06621 31.959308 
L 50.693991 41.840995 
L 88.384612 11.718016 
z
" style="fill:#ffff00;stroke:#000000;"/>
    <path clip-path="url(#p8dd3867678)" d="M 194.014605 153.37414 
L 210.551628 108.691682 
L 212.034201 138.708494 
z
" style="fill:#ff0000;stroke:#000000;"/>
    <path clip-path="url(#p8dd3867678)" d="M 100.06621 31.959308 
L 117.376757 16.14407 
L 147.087493 26.401241 
z
" style="fill:#ff0000;stroke:#000000;"/>
    <path clip-path="url(#p8dd3867678)" d="M 61.099635 160.120661 
L 63.584996 187.555578 
L 33.838199 149.499929 
z
" style="fill:#ff0000;stroke:#000000;"/>
    <path clip-path="url(#p8dd3867678)" d="M 147.732568 168.027959 
L 171.027178 196.784658 
L 114.333844 205.406953 
z
" style="fill:#ffff00;stroke:#000000;"/>
    <path clip-path="url(#p8dd3867678)" d="M 147.732568 168.027959 
L 194.014605 153.37414 
L 171.027178 196.784658 
z
" style="fill:#ffff00;stroke:#000000;"/>
    <path clip-path="url(#p8dd3867678)" d="M 92.511071 168.015354 
L 114.333844 205.406953 
L 63.584996 187.555578 
z
" style="fill:#ffff00;stroke:#000000;"/>
    <path clip-path="url(#p8dd3867678)" d="M 75.716871 75.304724 
L 29.023145 96.008254 
L 50.693991 41.840995 
z
" style="fill:#ffff00;stroke:#000000;"/>
    <path clip-path="url(#p8dd3867678)" d="M 62.006888 128.87964 
L 33.838199 149.499929 
L 29.023145 96.008254 
z
" style="fill:#ffff00;stroke:#000000;"/>
    <path clip-path="url(#p8dd3867678)" d="M 194.014605 153.37414 
L 173.286401 112.951377 
L 210.551628 108.691682 
z
" style="fill:#ffff00;stroke:#000000;"/>
    <path clip-path="url(#p8dd3867678)" d="M 173.286401 112.951377 
L 187.978217 61.162669 
L 210.551628 108.691682 
z
" style="fill:#ffff00;stroke:#000000;"/>
    <path clip-path="url(#p8dd3867678)" d="M 75.716871 75.304724 
L 50.693991 41.840995 
L 100.06621 31.959308 
z
" style="fill:#ffff00;stroke:#000000;"/>
    <path clip-path="url(#p8dd3867678)" d="M 61.099635 160.120661 
L 92.511071 168.015354 
L 63.584996 187.555578 
z
" style="fill:#ff0000;stroke:#000000;"/>
    <path clip-path="url(#p8dd3867678)" d="M 61.099635 160.120661 
L 33.838199 149.499929 
L 62.006888 128.87964 
z
" style="fill:#ff0000;stroke:#000000;"/>
    <path clip-path="url(#p8dd3867678)" d="M 135.89753 64.598607 
L 147.087493 26.401241 
L 187.978217 61.162669 
z
" style="fill:#ffff00;stroke:#000000;"/>
    <path clip-path="url(#p8dd3867678)" d="M 100.06621 31.959308 
L 147.087493 26.401241 
L 135.89753 64.598607 
z
" style="fill:#ffff00;stroke:#000000;"/>
    <path clip-path="url(#p8dd3867678)" d="M 92.511071 168.015354 
L 147.732568 168.027959 
L 114.333844 205.406953 
z
" style="fill:#ffff00;stroke:#000000;"/>
    <path clip-path="url(#p8dd3867678)" d="M 147.732568 168.027959 
L 173.286401 112.951377 
L 194.014605 153.37414 
z
" style="fill:#ffff00;stroke:#000000;"/>
    <path clip-path="url(#p8dd3867678)" d="M 62.006888 128.87964 
L 29.023145 96.008254 
L 75.716871 75.304724 
z
" style="fill:#ffff00;stroke:#000000;"/>
    <path clip-path="url(#p8dd3867678)" d="M 61.099635 160.120661 
L 62.006888 128.87964 
L 92.511071 168.015354 
z
" style="fill:#ff0000;stroke:#000000;"/>
    <path clip-path="url(#p8dd3867678)" d="M 173.286401 112.951377 
L 135.89753 64.598607 
L 187.978217 61.162669 
z
" style="fill:#ffff00;stroke:#000000;"/>
    <path clip-path="url(#p8dd3867678)" d="M 75.716871 75.304724 
L 100.06621 31.959308 
L 135.89753 64.598607 
z
" style="fill:#ffff00;stroke:#000000;"/>
    <path clip-path="url(#p8dd3867678)" d="M 92.511071 168.015354 
L 114.204225 120.971629 
L 147.732568 168.027959 
z
" style="fill:#ffff00;stroke:#000000;"/>
    <path clip-path="url(#p8dd3867678)" d="M 62.006888 128.87964 
L 114.204225 120.971629 
L 92.511071 168.015354 
z
" style="fill:#ffff00;stroke:#000000;"/>
    <path clip-path="url(#p8dd3867678)" d="M 147.732568 168.027959 
L 114.204225 120.971629 
L 173.286401 112.951377 
z
" style="fill:#ffff00;stroke:#000000;"/>
    <path clip-path="url(#p8dd3867678)" d="M 62.006888 128.87964 
L 75.716871 75.304724 
L 114.204225 120.971629 
z
" style="fill:#ffff00;stroke:#000000;"/>
    <path clip-path="url(#p8dd3867678)" d="M 114.204225 120.971629 
L 135.89753 64.598607 
L 173.286401 112.951377 
z
" style="fill:#00ffff;stroke:#000000;"/>
    <path clip-path="url(#p8dd3867678)" d="M 75.716871 75.304724 
L 135.89753 64.598607 
L 114.204225 120.971629 
z
" style="fill:#ffff00;stroke:#000000;"/>
   </g>
  </g>
 </g>
 <defs>
  <clipPath id="p8dd3867678">
   <rect height="221.76" width="221.76" x="3.5" y="3.5"/>
  </clipPath>
 </defs>
</svg>
